<svg width="30" height="30" viewBox="0 0 30 30" fill="none" xmlns="http://www.w3.org/2000/svg">
<g clip-path="url(#clip0_14809_79139)">
<path fill-rule="evenodd" clip-rule="evenodd" d="M14.25 4.5C8.45218 4.5 3.75 9.20218 3.75 15C3.75 20.7978 8.45218 25.5 14.25 25.5C15.0784 25.5 15.75 26.1716 15.75 27C15.75 27.8284 15.0784 28.5 14.25 28.5C6.79532 28.5 0.75 22.4547 0.75 15C0.75 7.54532 6.79532 1.5 14.25 1.5C21.7047 1.5 27.75 7.54532 27.75 15C27.75 15.8284 27.0784 16.5 26.25 16.5C25.4216 16.5 24.75 15.8284 24.75 15C24.75 9.20218 20.0478 4.5 14.25 4.5Z" fill="#CCDDFF"/>
<path d="M15.2387 16.2997H13.0344V20.8856H10.0539V7.77637H15.5364C18.7154 7.85788 20.3634 9.22587 20.4839 11.8874C20.5229 14.8679 18.7757 16.3387 15.2387 16.2997ZM15.0013 10.041H13.0344V14.0351H15.0013C16.55 13.9961 17.3439 13.3192 17.3864 12.0079C17.3439 10.7356 16.55 10.08 15.0013 10.041Z" fill="#3276FD"/>
<path fill-rule="evenodd" clip-rule="evenodd" d="M16.0743 19.7079C16.0743 18.925 16.709 18.2903 17.4919 18.2903H28.5824C29.3653 18.2903 30 18.925 30 19.7079C30 20.4908 29.3653 21.1255 28.5824 21.1255H17.4919C16.709 21.1255 16.0743 20.4908 16.0743 19.7079Z" fill="#FE4A3B"/>
<path fill-rule="evenodd" clip-rule="evenodd" d="M16.0743 24.1837C16.0743 23.4008 16.709 22.7661 17.4919 22.7661H24.0992C24.8822 22.7661 25.5168 23.4008 25.5168 24.1837C25.5168 24.9666 24.8822 25.6013 24.0992 25.6013H17.4919C16.709 25.6013 16.0743 24.9666 16.0743 24.1837Z" fill="#FE4A3B"/>
</g>
<defs>
<clipPath id="clip0_14809_79139">
<rect width="30" height="30" fill="white"/>
</clipPath>
</defs>
</svg>
