<svg width="30" height="30" viewBox="0 0 30 30" fill="none" xmlns="http://www.w3.org/2000/svg">
<g clip-path="url(#clip0_14358_73616)">
<path d="M24.0003 21.2363C23.5661 21.2363 23.1714 21.3942 22.8951 21.71C22.5793 22.0258 22.4214 22.4205 22.4214 22.8153C22.4214 23.2495 22.5793 23.6442 22.8951 23.9205C23.2109 24.2363 23.6056 24.3942 24.0003 24.3942C24.4345 24.3942 24.8293 24.2363 25.1056 23.9205C25.4214 23.6047 25.5793 23.21 25.5793 22.8153C25.5793 22.3811 25.4214 21.9863 25.1056 21.71C24.8293 21.3942 24.4345 21.2363 24.0003 21.2363Z" fill="#3276FD"/>
<path d="M29.8425 24.5921L28.9346 23.8026C28.9741 23.5263 29.0135 23.25 29.0135 22.9737C29.0135 22.6974 28.9741 22.4211 28.9346 22.1447L29.8425 21.3553C30.0004 21.2368 30.0398 21.0395 29.9609 20.8421V20.8026C29.7241 20.0921 29.3293 19.4211 28.8556 18.8684H28.8162C28.6977 18.7105 28.5004 18.6711 28.303 18.75L27.1583 19.1447C26.7241 18.7895 26.2504 18.5132 25.7372 18.3158L25.5004 17.1316C25.4609 16.9342 25.303 16.8158 25.1451 16.7763H25.1056C24.3556 16.6579 23.6056 16.6579 22.8556 16.7763H22.8162C22.6188 16.8158 22.5004 16.9737 22.4609 17.1316L22.2241 18.3553C21.7109 18.5526 21.2372 18.8289 20.8425 19.1842L19.6977 18.7895C19.5398 18.7105 19.3425 18.7895 19.1846 18.9079L19.1451 18.9474C18.6714 19.5395 18.2767 20.1711 18.0398 20.8816V20.9211C17.9609 21.0789 18.0398 21.2763 18.1583 21.4342L19.1056 22.2237C19.0662 22.5 19.0267 22.7763 19.0267 23.0132C19.0267 23.2895 19.0662 23.5658 19.1056 23.8026L18.1583 24.5921C18.0004 24.7105 17.9609 24.9079 18.0398 25.1053V25.1447C18.2767 25.8553 18.6714 26.5263 19.1451 27.0789L19.1846 27.1184C19.303 27.2763 19.5004 27.3158 19.6977 27.2368L20.8425 26.8421C21.2767 27.1974 21.7504 27.4737 22.2241 27.6711L22.5004 28.8158C22.5398 29.0132 22.6977 29.1316 22.8556 29.1711H22.8951C23.2504 29.25 23.6451 29.2895 24.0004 29.2895C24.3951 29.2895 24.7504 29.25 25.1056 29.1711H25.1451C25.3425 29.1316 25.4609 28.9737 25.5004 28.8158L25.7372 27.6316C26.2504 27.4342 26.7241 27.1579 27.1583 26.8026L28.303 27.1974C28.4609 27.2763 28.6583 27.1974 28.8162 27.0789L28.8556 27.0395C29.3293 26.4474 29.7241 25.8158 29.9609 25.1053V25.0658C30.0398 24.9079 30.0004 24.7105 29.8425 24.5921ZM24.0004 25.3026C22.6188 25.3026 21.5135 24.1974 21.5135 22.8158C21.5135 21.4342 22.6188 20.3289 24.0004 20.3289C25.3819 20.3289 26.4872 21.4342 26.4872 22.8158C26.4872 24.1974 25.3819 25.3026 24.0004 25.3026Z" fill="#FE4A3B"/>
<path fill-rule="evenodd" clip-rule="evenodd" d="M16.2634 3.15789C13.1023 3.15789 10.5397 5.72048 10.5397 8.88158C10.5397 12.0427 13.1023 14.6053 16.2634 14.6053C19.4245 14.6053 21.9871 12.0427 21.9871 8.88158C21.9871 5.72048 19.4245 3.15789 16.2634 3.15789ZM7.38185 8.88158C7.38185 3.97642 11.3583 0 16.2634 0C21.1686 0 25.145 3.97642 25.145 8.88158C25.145 13.7867 21.1686 17.7632 16.2634 17.7632C11.3583 17.7632 7.38185 13.7867 7.38185 8.88158Z" fill="#CCDDFF"/>
<path fill-rule="evenodd" clip-rule="evenodd" d="M16.2634 17.8026C9.60137 17.8026 4.17637 22.39 3.13386 28.2628C2.98144 29.1214 2.16185 29.6939 1.30324 29.5415C0.444636 29.3891 -0.127844 28.5695 0.0245707 27.7109C1.35048 20.2416 8.16232 14.6447 16.2634 14.6447C17.1355 14.6447 17.8424 15.3517 17.8424 16.2237C17.8424 17.0957 17.1355 17.8026 16.2634 17.8026Z" fill="#CCDDFF"/>
</g>
<defs>
<clipPath id="clip0_14358_73616">
<rect width="30" height="30" fill="white"/>
</clipPath>
</defs>
</svg>
