<svg width="30" height="30" viewBox="0 0 30 30" fill="none" xmlns="http://www.w3.org/2000/svg">
<path fill-rule="evenodd" clip-rule="evenodd" d="M6.24121 8.72274C6.24121 7.85867 6.94168 7.1582 7.80575 7.1582H18.9531C19.8171 7.1582 20.5176 7.85867 20.5176 8.72274C20.5176 9.58681 19.8171 10.2873 18.9531 10.2873H7.80575C6.94168 10.2873 6.24121 9.58681 6.24121 8.72274Z" fill="#3276FD"/>
<path fill-rule="evenodd" clip-rule="evenodd" d="M6.24121 14.1595C6.24121 13.2954 6.94168 12.595 7.80575 12.595H15.472C16.3361 12.595 17.0365 13.2954 17.0365 14.1595C17.0365 15.0236 16.3361 15.724 15.472 15.724H7.80575C6.94168 15.724 6.24121 15.0236 6.24121 14.1595Z" fill="#3276FD"/>
<path fill-rule="evenodd" clip-rule="evenodd" d="M6.24121 19.5963C6.24121 18.7322 6.94168 18.0317 7.80575 18.0317H13.8683C14.7324 18.0317 15.4329 18.7322 15.4329 19.5963C15.4329 20.4603 14.7324 21.1608 13.8683 21.1608H7.80575C6.94168 21.1608 6.24121 20.4603 6.24121 19.5963Z" fill="#3276FD"/>
<path fill-rule="evenodd" clip-rule="evenodd" d="M1 5.5C1 2.46243 3.46243 0 6.5 0H21.5C24.5376 0 27 2.46243 27 5.5V12C27 12.8284 26.3284 13.5 25.5 13.5C24.6716 13.5 24 12.8284 24 12V5.5C24 4.11929 22.8807 3 21.5 3H6.5C5.11929 3 4 4.11929 4 5.5V24.5C4 25.8807 5.11929 27 6.5 27H16.25C17.0784 27 17.75 27.6716 17.75 28.5C17.75 29.3284 17.0784 30 16.25 30H6.5C3.46243 30 1 27.5376 1 24.5V5.5Z" fill="#CCDDFF"/>
<path d="M23 20.0488C22.5658 20.0488 22.171 20.2067 21.8947 20.5225C21.5789 20.8383 21.421 21.233 21.421 21.6278C21.421 22.062 21.5789 22.4567 21.8947 22.733C22.2105 23.0488 22.6052 23.2067 23 23.2067C23.4342 23.2067 23.8289 23.0488 24.1052 22.733C24.421 22.4172 24.5789 22.0225 24.5789 21.6278C24.5789 21.1936 24.421 20.7988 24.1052 20.5225C23.8289 20.2067 23.4342 20.0488 23 20.0488Z" fill="#3276FD"/>
<path d="M28.8421 23.4046L27.9342 22.6151C27.9737 22.3388 28.0132 22.0625 28.0132 21.7862C28.0132 21.5099 27.9737 21.2336 27.9342 20.9572L28.8421 20.1678C29 20.0493 29.0395 19.852 28.9605 19.6546V19.6151C28.7237 18.9046 28.3289 18.2336 27.8553 17.6809H27.8158C27.6974 17.523 27.5 17.4836 27.3026 17.5625L26.1579 17.9572C25.7237 17.602 25.25 17.3257 24.7368 17.1283L24.5 15.9441C24.4605 15.7467 24.3026 15.6283 24.1447 15.5888H24.1053C23.3553 15.4704 22.6053 15.4704 21.8553 15.5888H21.8158C21.6184 15.6283 21.5 15.7862 21.4605 15.9441L21.2237 17.1678C20.7105 17.3651 20.2368 17.6414 19.8421 17.9967L18.6974 17.602C18.5395 17.523 18.3421 17.602 18.1842 17.7204L18.1447 17.7599C17.6711 18.352 17.2763 18.9836 17.0395 19.6941V19.7336C16.9605 19.8914 17.0395 20.0888 17.1579 20.2467L18.1053 21.0362C18.0658 21.3125 18.0263 21.5888 18.0263 21.8257C18.0263 22.102 18.0658 22.3783 18.1053 22.6151L17.1579 23.4046C17 23.523 16.9605 23.7204 17.0395 23.9178V23.9572C17.2763 24.6678 17.6711 25.3388 18.1447 25.8914L18.1842 25.9309C18.3026 26.0888 18.5 26.1283 18.6974 26.0493L19.8421 25.6546C20.2763 26.0099 20.75 26.2862 21.2237 26.4836L21.5 27.6283C21.5395 27.8257 21.6974 27.9441 21.8553 27.9836H21.8947C22.25 28.0625 22.6447 28.102 23 28.102C23.3947 28.102 23.75 28.0625 24.1053 27.9836H24.1447C24.3421 27.9441 24.4605 27.7862 24.5 27.6283L24.7368 26.4441C25.25 26.2467 25.7237 25.9704 26.1579 25.6151L27.3026 26.0099C27.4605 26.0888 27.6579 26.0099 27.8158 25.8914L27.8553 25.852C28.3289 25.2599 28.7237 24.6283 28.9605 23.9178V23.8783C29.0395 23.7204 29 23.523 28.8421 23.4046ZM23 24.1151C21.6184 24.1151 20.5132 23.0099 20.5132 21.6283C20.5132 20.2467 21.6184 19.1414 23 19.1414C24.3816 19.1414 25.4868 20.2467 25.4868 21.6283C25.4868 23.0099 24.3816 24.1151 23 24.1151Z" fill="#FE4A3B"/>
</svg>
