<svg width="16" height="16" viewBox="0 0 16 16" fill="none" xmlns="http://www.w3.org/2000/svg">
<path d="M13.9474 6.94737H9.05263V2.05263C9.05263 1.47368 8.57895 1 8 1C7.42105 1 6.94737 1.47368 6.94737 2.05263V6.94737H2.05263C1.47368 6.94737 1 7.42105 1 8C1 8.57895 1.47368 9.05263 2.05263 9.05263H6.94737V13.9474C6.94737 14.5263 7.42105 15 8 15C8.57895 15 9.05263 14.5263 9.05263 13.9474V9.05263H13.9474C14.5263 9.05263 15 8.57895 15 8C15 7.42105 14.5263 6.94737 13.9474 6.94737Z" fill="#404352"/>
</svg>
