<svg width="22" height="22" viewBox="0 0 22 22" fill="none" xmlns="http://www.w3.org/2000/svg">
<path d="M12.6966 10.9997L16.6478 7.04855C17.1165 6.57978 17.1165 5.82036 16.6478 5.35158C16.179 4.88281 15.4196 4.88281 14.9508 5.35158L10.9997 9.3027L7.04855 5.35158C6.57978 4.88281 5.82036 4.88281 5.35158 5.35158C4.88281 5.82036 4.88281 6.57978 5.35158 7.04855L9.3027 10.9997L5.35158 14.9508C4.88281 15.4196 4.88281 16.179 5.35158 16.6477C5.58597 16.8821 5.89268 17 6.20074 17C6.50879 17 6.8155 16.8821 7.04855 16.6477L10.9997 12.6966L14.9508 16.6477C15.1852 16.8821 15.4919 17 15.7999 17C16.1067 17 16.4147 16.8821 16.6478 16.6477C17.1165 16.179 17.1165 15.4196 16.6478 14.9508L12.6966 10.9997Z" fill="#404352"/>
</svg>
