<svg width="16" height="16" viewBox="0 0 16 16" fill="none" xmlns="http://www.w3.org/2000/svg">
<path fill-rule="evenodd" clip-rule="evenodd" d="M4.33333 1H11.0611C12.3444 1 13.3944 2.05 13.3944 3.33333V8.09722C13.3944 8.52678 13.0462 8.875 12.6167 8.875C12.1871 8.875 11.8389 8.52678 11.8389 8.09722V3.33333C11.8389 2.90556 11.4889 2.55556 11.0611 2.55556H4.33333C3.90556 2.55556 3.55556 2.90556 3.55556 3.33333V12.6667C3.55556 13.0944 3.90556 13.4444 4.33333 13.4444H8.22222C8.65178 13.4444 9 13.7927 9 14.2222C9 14.6518 8.65178 15 8.22222 15H4.33333C3.05 15 2 13.95 2 12.6667V3.33333C2 2.05 3.05 1 4.33333 1ZM5.26666 7.41667H10.1667C10.4778 7.41667 10.75 7.68889 10.75 8C10.75 8.31111 10.4778 8.58333 10.1667 8.58333H5.26666C4.95555 8.58333 4.68333 8.31111 4.68333 8C4.68333 7.68889 4.95555 7.41667 5.26666 7.41667ZM6.97777 10.4889H5.26666C4.95555 10.4889 4.68333 10.7611 4.68333 11.0722C4.68333 11.3833 4.95555 11.6556 5.26666 11.6556H6.97777C7.28888 11.6556 7.5611 11.3833 7.5611 11.0722C7.5611 10.7611 7.28888 10.4889 6.97777 10.4889ZM5.26666 4.34445H10.1667C10.4778 4.34445 10.75 4.61667 10.75 4.92779C10.75 5.2389 10.4778 5.51112 10.1667 5.51112H5.26666C4.95555 5.51112 4.68333 5.2389 4.68333 4.92779C4.68333 4.61667 4.95555 4.34445 5.26666 4.34445Z" fill="#404352"/>
<path fill-rule="evenodd" clip-rule="evenodd" d="M8.40002 12C8.40002 11.6686 8.66865 11.4 9.00002 11.4H13C13.3314 11.4 13.6 11.6686 13.6 12C13.6 12.3314 13.3314 12.6 13 12.6H9.00002C8.66865 12.6 8.40002 12.3314 8.40002 12Z" fill="#404352"/>
<path fill-rule="evenodd" clip-rule="evenodd" d="M13.1515 12L11.5757 13.5757C11.3414 13.81 11.3414 14.1899 11.5757 14.4243C11.8101 14.6586 12.19 14.6586 12.4243 14.4243L14.1414 12.7071C14.532 12.3166 14.532 11.6834 14.1414 11.2929L12.4243 9.57573C12.19 9.34142 11.8101 9.34142 11.5757 9.57573C11.3414 9.81004 11.3414 10.1899 11.5757 10.4243L13.1515 12Z" fill="#404352"/>
</svg>
