<svg width="80" height="40" viewBox="0 0 80 40" fill="none" xmlns="http://www.w3.org/2000/svg">
<g clip-path="url(#clip0_13186_55870)">
<path d="M49.8355 0.0295203C52.2485 0.147601 54.6028 0.546125 56.8835 1.34317C59.5467 2.2583 61.9892 3.58672 64.0933 5.49077C65.4617 6.73063 66.5653 8.16236 67.2862 9.85978C67.3451 10.0074 67.404 10.1697 67.4628 10.3173C67.4922 10.4059 67.5364 10.4502 67.6394 10.4502C68.4928 10.5092 69.3315 10.5978 70.1702 10.7601C72.0536 11.1144 73.8634 11.69 75.4967 12.7085C77.6155 14.0221 79.1163 15.8376 79.9256 18.214C79.955 18.2878 79.9697 18.3764 79.9844 18.4502C79.9403 18.5092 79.9403 18.4354 79.9256 18.4207C78.8956 17.1218 77.7332 15.9852 76.3648 15.0554C74.658 13.9041 72.7893 13.1808 70.7735 12.8118C69.4198 12.5609 68.0661 12.4723 66.6977 12.5018C66.5947 12.5018 66.5211 12.4871 66.4623 12.3985C63.593 8.38376 59.7233 5.77122 55.0442 4.30996C53.514 3.83764 51.9543 3.52768 50.3504 3.35055C48.4965 3.14391 46.6572 3.11439 44.8033 3.29151C40.0359 3.73432 35.6364 5.22509 31.6784 7.95572C29.9274 9.16605 28.353 10.583 26.9405 12.1919C26.6903 12.4723 26.4549 12.7675 26.3372 13.1513C25.5132 12.8266 24.6892 12.5314 23.8505 12.2804C21.408 11.5424 18.9361 11.1292 16.3758 11.1882C13.2565 11.262 10.3431 12.0886 7.65043 13.6531C5.32561 15.0111 3.36865 16.797 1.66183 18.8782C1.1027 19.5572 0.587708 20.2657 0.0874324 20.9889C0.0580044 21.0332 0.0285764 21.0923 -0.0302795 21.1218C-0.0597075 21.0332 0.0138625 20.9594 0.0432904 20.8856C0.646564 19.3801 1.39698 17.9483 2.32396 16.6052C4.39863 13.6679 7.10601 11.5867 10.4902 10.3764C11.9469 9.85978 13.433 9.53506 14.9633 9.37269C16.5671 9.19557 18.1562 9.21033 19.76 9.35793C21.82 9.54982 23.8505 9.9631 25.8369 10.583C25.9988 10.6273 26.0871 10.5978 26.1753 10.4649C28.0293 7.91144 30.3688 5.8893 33.0615 4.25092C35.8572 2.55351 38.8735 1.38745 42.0665 0.693727C43.5526 0.369004 45.0534 0.147601 46.5689 0.0590406C46.7602 0.0442804 46.9515 0.0295203 47.1575 0.0295203C47.2311 0 47.3046 0.0295203 47.3635 0.0147601C47.4371 0.0147601 47.5106 0.0147601 47.5842 0.0147601C47.6725 0.0147601 47.7755 0.0147601 47.8638 0.0147601C47.9962 0 48.1286 0.0295203 48.2611 0C48.3788 0 48.4965 0 48.6142 0C48.7172 0.0442804 48.8349 0.0147601 48.9379 0.0147601C49.0409 0.0147601 49.1439 0.0147601 49.2469 0.0147601C49.3205 0.0147601 49.394 0.0147601 49.4529 0.0147601C49.5117 0.0147601 49.5706 0.0147601 49.6295 0.0147601C49.7177 0.0295203 49.7766 0.0147601 49.8355 0.0295203Z" fill="#2C3EB2"/>
<path d="M40.4341 32.3393C42.597 32.3393 44.76 32.3393 46.9082 32.3393C49.0565 32.3393 51.19 32.3393 53.3382 32.3393C54.3241 32.3393 55.0745 31.7341 55.2363 30.8042C55.5012 29.3134 55.7661 27.8227 56.0309 26.3319C56.0603 26.1695 56.0162 26.1548 55.8691 26.1548C54.8391 26.1548 53.8091 26.1548 52.7791 26.1548C52.6173 26.1548 52.5731 26.1991 52.5437 26.3467C52.2936 27.7932 52.0287 29.2396 51.7786 30.6861C51.7197 30.9961 51.5284 31.1732 51.2194 31.1732C50.7486 31.188 50.2777 31.1732 49.8069 31.1732C49.7039 31.1732 49.6745 31.1437 49.6892 31.0404C49.7333 30.8485 49.7627 30.6714 49.7922 30.4795C50.1159 28.664 50.4396 26.8337 50.7633 25.0182C50.7927 24.8559 50.8516 24.8116 51.0134 24.8116C52.2053 24.8116 53.3971 24.8264 54.5742 24.8116C55.4423 24.7968 56.1339 24.1474 56.2958 23.2913C56.5459 21.8743 56.796 20.4426 57.0462 19.0256C57.0756 18.878 57.0462 18.8485 56.899 18.8485C55.8691 18.8485 54.8391 18.8485 53.8091 18.8485C53.6472 18.8485 53.5884 18.8928 53.5737 19.0551C53.3382 20.4131 53.1028 21.771 52.8527 23.1289C52.7791 23.5127 52.6025 23.6603 52.2053 23.6603C51.8816 23.6603 51.5431 23.6603 51.2194 23.6603C50.9987 23.6603 51.0134 23.6603 51.0429 23.4389C51.3519 21.6972 51.6608 19.9408 51.9846 18.1991C51.9993 18.081 51.9993 18.0367 51.8521 18.0367C50.6897 18.0367 49.5273 18.0367 48.3796 18.0367C48.2766 18.0367 48.2325 18.0662 48.2178 18.1695C48.1442 18.5828 48.0706 19.0109 47.9971 19.4241C47.7616 20.7821 47.5115 22.1253 47.2761 23.4832C47.2466 23.6308 47.1878 23.6603 47.0407 23.6603C46.5845 23.6455 46.1284 23.6455 45.687 23.6603C45.5251 23.6603 45.4957 23.6308 45.5251 23.4684C45.79 21.9924 46.0548 20.5164 46.3197 19.0256C46.3491 18.878 46.3344 18.8337 46.1725 18.8337C45.1425 18.8337 44.1126 18.8337 43.0826 18.8337C42.9207 18.8337 42.8766 18.878 42.8472 19.0256C42.5235 20.8854 42.185 22.7452 41.8613 24.6197C41.8319 24.7968 41.876 24.8264 42.0379 24.8116C43.2444 24.8116 44.4363 24.8116 45.6428 24.8116C46.0695 24.8116 46.4962 24.8116 46.9082 24.8116C47.0112 24.8116 47.0407 24.8264 47.0259 24.9444C46.9671 25.2249 46.9229 25.5053 46.8788 25.7858C46.5698 27.5275 46.2608 29.2839 45.9518 31.0256C45.9371 31.1289 45.893 31.188 45.7752 31.1732C45.2014 31.1585 44.6276 31.1732 44.0684 31.1732C43.936 31.1732 43.9066 31.1437 43.936 31.0109C44.2156 29.4463 44.4951 27.867 44.7747 26.2876C44.7894 26.1695 44.7747 26.14 44.657 26.14C43.5976 26.14 42.5382 26.14 41.4788 26.14C41.3758 26.14 41.3316 26.1695 41.3022 26.2729C40.9638 28.2212 40.6106 30.1695 40.2722 32.1179C40.2281 32.3098 40.2722 32.3393 40.4341 32.3393Z" fill="#2C3EB2"/>
<path d="M12.4186 23.3799C12.2715 23.3799 12.1538 23.3799 12.0213 23.3799C12.0508 23.2913 12.0655 23.2323 12.0802 23.1732C12.5363 21.5939 12.9778 20.0293 13.4339 18.45C13.5075 18.2138 13.5075 18.2433 13.272 18.2433C12.963 18.2433 12.654 18.2433 12.3303 18.2433C10.4175 18.2433 8.48998 18.2433 6.57716 18.2433C6.44474 18.2433 6.38588 18.2729 6.35645 18.4205C6.32703 18.6566 6.26817 18.878 6.22403 19.1142C5.81204 21.3134 5.38533 23.5127 4.97334 25.712C4.56135 27.9112 4.13464 30.0957 3.72265 32.295C3.70794 32.3983 3.72265 32.4869 3.78151 32.5754C4.56135 33.6972 5.32648 34.819 6.10632 35.9555C6.13574 35.9998 6.15046 36.0588 6.22403 36.0736C6.31231 35.616 6.4006 35.1732 6.47417 34.7157C6.87144 32.5902 7.26872 30.4795 7.666 28.354C8.03385 26.3762 8.4017 24.3983 8.76955 22.4057C8.94612 21.4463 9.12269 20.4869 9.29925 19.5275C9.31397 19.4684 9.31397 19.3946 9.41697 19.3946C9.62296 19.3946 9.84367 19.3946 10.0644 19.3946C9.59353 21.1511 9.12269 22.9075 8.66655 24.664C8.74012 24.664 8.79898 24.664 8.85783 24.664C9.06383 24.664 9.06383 24.664 9.01969 24.8706C8.54884 26.6861 8.09271 28.5164 7.62186 30.3319C7.57772 30.5238 7.57772 30.5238 7.769 30.5238C8.65184 30.5238 9.51996 30.5238 10.4028 30.5238C10.5352 30.5238 10.5794 30.4943 10.6235 30.3614C11.0649 28.6345 11.5064 26.9223 11.9625 25.1954C12.1096 24.605 12.2568 23.9998 12.4186 23.3799Z" fill="#2C3EB2"/>
<path d="M28.3539 25.6234C29.3691 25.6234 30.3844 25.6234 31.4144 25.6234C31.5321 25.6234 31.5762 25.6382 31.5468 25.7858C31.3702 26.6714 31.1937 27.557 31.0465 28.4426C31.0171 28.5902 30.9583 28.6197 30.8258 28.6197C29.737 28.6197 28.6482 28.6197 27.5593 28.6197C27.4416 28.6197 27.3828 28.6492 27.368 28.7673C27.3239 29.0478 27.2798 29.3134 27.2209 29.5791C27.1768 29.7415 27.2209 29.771 27.3828 29.771C28.4716 29.771 29.5457 29.771 30.6345 29.771C30.7523 29.771 30.8111 29.7858 30.7817 29.9334C30.6198 30.7157 30.4874 31.4979 30.3256 32.2802C30.2961 32.4278 30.3108 32.4721 30.4727 32.4721C31.6792 32.4721 32.9005 32.4721 34.107 32.4721C34.2542 32.4721 34.2983 32.4278 34.3278 32.295C34.4749 31.5275 34.622 30.7599 34.7545 29.9777C34.7839 29.8153 34.8427 29.771 35.0193 29.771C36.0346 29.7858 37.0498 29.771 38.0798 29.771C38.1975 29.771 38.2711 29.7415 38.2858 29.6087C38.33 29.3282 38.3741 29.0478 38.4477 28.7821C38.4918 28.6197 38.433 28.6197 38.3005 28.6197C37.2706 28.6197 36.2259 28.6197 35.1959 28.6197C35.0635 28.6197 35.034 28.5902 35.0635 28.4574C35.24 27.5865 35.4019 26.7157 35.5637 25.8301C35.5932 25.6825 35.6373 25.6234 35.8139 25.6234C36.7703 25.6382 37.7267 25.6234 38.6978 25.6382C38.8155 25.6382 38.8744 25.6087 38.8891 25.4758C38.9185 25.2101 38.9774 24.9592 39.0362 24.6935C39.0804 24.4721 39.0804 24.4721 38.845 24.4721C37.9033 24.4721 36.9468 24.4721 36.0052 24.4721C35.9316 24.4721 35.8286 24.5164 35.858 24.354C36.0346 23.4241 36.2112 22.509 36.3877 21.5791C36.4024 21.4758 36.4466 21.4463 36.5496 21.4463C37.0351 21.4463 37.5207 21.4463 37.9915 21.4463C38.5507 21.4463 39.1098 21.4463 39.6689 21.4463C39.8014 21.4463 39.8602 21.4315 39.8897 21.2692C39.9191 20.9887 39.9779 20.723 40.0515 20.4574C40.0809 20.3098 40.0368 20.2655 39.8897 20.2802C39.4629 20.295 39.0362 20.2802 38.5801 20.2802C38.6095 20.2064 38.6242 20.1474 38.6537 20.0884C38.9038 19.4537 39.1539 18.819 39.4188 18.1843C39.4777 18.0367 39.4482 18.0072 39.3011 18.0072C38.33 18.0072 37.3441 18.0072 36.373 18.0072C36.2553 18.0072 36.1964 18.0367 36.1523 18.1548C35.8874 18.819 35.6226 19.4832 35.3725 20.1474C35.3283 20.2507 35.2842 20.2802 35.1665 20.2802C34.725 20.2802 34.2689 20.2655 33.8275 20.2802C33.6951 20.2802 33.6656 20.2507 33.6656 20.1179C33.6656 19.4684 33.6362 18.819 33.6362 18.1695C33.6362 18.0515 33.5921 18.0072 33.4743 18.0072C32.4885 18.0072 31.5027 18.0072 30.5021 18.0072C30.3697 18.0072 30.3403 18.0515 30.355 18.1695C30.3697 18.819 30.3697 19.4684 30.3844 20.1179C30.3844 20.2655 30.3403 20.2802 30.2226 20.2802C29.8841 20.2655 29.5457 20.2802 29.222 20.2802C29.1043 20.2802 29.0454 20.3098 29.0307 20.4426C28.9866 20.723 28.9424 21.0035 28.8689 21.2692C28.8394 21.4168 28.8689 21.4463 29.016 21.4463C30.1048 21.4463 31.1937 21.4463 32.2825 21.4463C32.4149 21.4463 32.4444 21.4758 32.4149 21.6086C32.2384 22.509 32.0618 23.4094 31.9 24.3245C31.8705 24.4574 31.8264 24.4721 31.7087 24.4721C30.6787 24.4721 29.6634 24.4721 28.6334 24.4721C28.4863 24.4721 28.4422 24.5164 28.4274 24.6492C28.3833 24.9149 28.3392 25.1806 28.2803 25.4463C28.1479 25.6086 28.2067 25.6234 28.3539 25.6234Z" fill="#2C3EB2"/>
<path d="M72.8931 23.0699C70.377 23.0699 67.861 23.0699 65.3301 23.0699C64.7416 23.0699 64.1677 23.0699 63.5792 23.0699C63.4762 23.0699 63.432 23.0847 63.4173 23.2027C63.3732 23.4832 63.329 23.7636 63.2702 24.0441C63.226 24.2212 63.2849 24.2507 63.4468 24.2507C64.6974 24.2507 65.9481 24.2507 67.2135 24.2507C67.3018 24.2507 67.3901 24.236 67.346 24.3836C66.7721 27.1437 66.213 29.9186 65.6391 32.6788C65.5509 33.1216 65.3449 33.2839 64.8887 33.2839C47.1584 33.2839 29.428 33.2839 11.6829 33.2839C11.5211 33.2839 11.3151 33.2396 11.1974 33.3134C11.0796 33.3872 11.0944 33.6087 11.0502 33.771C10.9914 33.9924 10.9914 33.9924 11.2121 33.9924C20.5996 33.9924 30.0018 33.9924 39.3894 33.9924C48.7769 33.9924 58.1791 33.9924 67.5667 33.9924C68.3318 33.9924 68.8468 33.5939 69.0381 32.8559C69.2441 32.0736 69.3471 31.2765 69.5089 30.4795C69.9062 28.4574 70.3182 26.4352 70.7302 24.4131C70.7596 24.2802 70.8038 24.236 70.9362 24.236C71.5395 24.2507 72.1427 24.236 72.7313 24.236C72.849 24.236 72.8931 24.1917 72.9079 24.0884C72.952 23.8227 72.9961 23.557 73.055 23.2913C73.1138 23.0699 73.1138 23.0699 72.8931 23.0699Z" fill="#2C3EB2"/>
<path d="M57.4876 32.5754C58.5176 32.5754 59.5475 32.5607 60.5775 32.5754C60.7541 32.5754 60.7982 32.5164 60.8277 32.354C61.0042 31.3208 61.1955 30.2729 61.3721 29.2396C61.6369 27.7636 61.8871 26.2876 62.1519 24.8116C62.1666 24.7083 62.1372 24.6935 62.0489 24.6935C61.9165 24.6935 61.7841 24.6935 61.6369 24.6935C62.1225 23.557 62.5933 22.45 63.0789 21.3282C62.7552 21.3282 62.4756 21.3282 62.1519 21.3282C62.6522 20.2064 63.1525 19.0994 63.6675 17.9777C63.6233 17.9777 63.6086 17.9629 63.5939 17.9629C62.4903 17.9629 61.3868 17.9629 60.2685 17.9629C60.1508 17.9629 60.1214 18.0219 60.0772 18.0957C59.474 19.3946 58.8854 20.6935 58.2821 21.9924C58.2674 22.0367 58.2233 22.081 58.238 22.1548C58.547 22.1548 58.8413 22.1548 59.1797 22.1548C59.1356 22.2433 59.1208 22.3024 59.0914 22.3614C58.6059 23.4979 58.1203 24.6197 57.62 25.7563C57.5317 25.9481 57.5317 25.9481 57.7377 25.9481C57.8849 25.9481 58.0173 25.9481 58.1644 25.9481C58.4881 25.9481 58.4881 25.9481 58.4293 26.2729C58.0761 28.3098 57.7083 30.3467 57.3404 32.3836C57.3257 32.5312 57.3404 32.5754 57.4876 32.5754Z" fill="#2C3EB2"/>
<path d="M21.9386 32.4278C22.9686 32.4278 23.9985 32.4278 25.0285 32.4278C25.1609 32.4278 25.1609 32.354 25.1904 32.2655C25.6906 30.6271 26.2056 28.974 26.7059 27.3356C26.8678 26.7895 27.0443 26.2433 27.2062 25.6825C27.1326 25.6825 27.0738 25.6825 27.0149 25.6825C26.0438 25.6825 25.0874 25.6825 24.1162 25.6825C23.9691 25.6825 23.9103 25.712 23.8808 25.8596C23.3658 27.5275 22.8508 29.1954 22.3359 30.878C22.174 31.3946 22.0269 31.8965 21.865 32.4131C21.9091 32.4131 21.9239 32.4278 21.9386 32.4278Z" fill="#2C3EB2"/>
<path d="M24.0721 24.8559C24.0721 24.974 24.131 24.9887 24.234 24.9887C25.2345 24.9887 26.2203 24.9887 27.2209 24.9887C27.3533 24.9887 27.368 24.9444 27.368 24.8264C27.3092 23.8817 27.2503 22.9371 27.1915 21.9777C27.1915 21.8596 27.1473 21.83 27.0296 21.83C26.5293 21.83 26.0438 21.83 25.5435 21.83C25.0579 21.83 24.5724 21.83 24.0721 21.83C23.925 21.83 23.8808 21.8596 23.8955 22.0072C23.9544 22.9518 24.0133 23.8965 24.0721 24.8559Z" fill="#2C3EB2"/>
<path d="M24.7489 21.0182C24.7489 21.1511 24.7784 21.1954 24.9255 21.1954C25.8966 21.1806 26.8825 21.1954 27.8536 21.1954C27.9713 21.1954 28.0302 21.1806 28.0155 21.033C27.9566 20.0736 27.9125 19.1289 27.8683 18.1695C27.8683 18.0367 27.7947 18.0515 27.7065 18.0515C27.2062 18.0515 26.7206 18.0515 26.2203 18.0515C25.7201 18.0515 25.2345 18.0515 24.7342 18.0515C24.6165 18.0515 24.5724 18.081 24.5871 18.2138C24.6607 19.1437 24.7048 20.0884 24.7489 21.0182Z" fill="#2C3EB2"/>
<path d="M73.2021 18.2138C71.8484 18.2138 70.48 18.2138 69.1264 18.2138C67.758 18.2138 66.4043 18.2138 65.0359 18.2138C64.9034 18.2138 64.8446 18.2433 64.8299 18.3762C64.7857 18.6566 64.7416 18.9518 64.6827 19.2323C64.6533 19.3651 64.6974 19.3946 64.8152 19.3946C67.552 19.3946 70.2888 19.3946 73.0403 19.3946C73.158 19.3946 73.1874 19.3651 73.2168 19.247C73.261 18.9666 73.3051 18.6714 73.364 18.3909C73.3934 18.2581 73.364 18.2138 73.2021 18.2138Z" fill="#2C3EB2"/>
<path d="M11.2415 32.236C11.2121 32.4278 11.2709 32.4278 11.4181 32.4278C12.8895 32.4278 14.3756 32.4278 15.847 32.4278C16.5238 32.4278 17.186 32.4426 17.8628 32.4278C18.7015 32.4131 19.4519 31.7784 19.6432 30.9666C19.6873 30.7599 19.7315 30.5385 19.7609 30.3171C20.1729 28.1179 20.5996 25.9186 21.0116 23.7193C21.35 21.9629 21.6737 20.2064 22.0121 18.4352C22.0416 18.2729 21.9974 18.2433 21.8503 18.2433C20.5555 18.2433 19.2753 18.2433 17.9805 18.2433C16.6857 18.2433 15.4056 18.2433 14.1107 18.2433C13.9194 18.2433 13.8753 18.3024 13.8459 18.4795C13.4339 20.6788 13.0072 22.878 12.5952 25.0773C12.1538 27.4684 11.6976 29.8448 11.2415 32.236ZM15.8911 24.5902C16.2148 22.9371 16.5238 21.2692 16.8328 19.6013C16.8622 19.4684 16.8917 19.4094 17.0388 19.4241C17.5685 19.4389 18.0835 19.4241 18.6279 19.4241C18.4955 20.1326 18.3631 20.8116 18.2306 21.5053C18.0394 22.5385 17.8334 23.5717 17.6421 24.5902C17.6274 24.7083 17.5832 24.7378 17.4655 24.7378C16.98 24.7378 16.4944 24.7378 16.0236 24.7378C15.8764 24.7526 15.8617 24.7083 15.8911 24.5902ZM14.6404 31.1142C14.8611 29.9924 15.0671 28.8559 15.2879 27.7341C15.3908 27.2027 15.4938 26.6566 15.5968 26.1253C15.6263 25.9924 15.6557 25.9039 15.8323 25.9186C16.053 25.9334 16.2884 25.9186 16.5238 25.9186C16.7592 25.9186 16.9947 25.9334 17.2301 25.9186C17.3772 25.9039 17.392 25.9481 17.3772 26.0957C17.1124 27.4832 16.8475 28.8854 16.5827 30.2729C16.5533 30.4352 16.5238 30.5976 16.4944 30.7599C16.4355 31.0551 16.2148 31.247 15.9058 31.247C15.5233 31.247 15.1554 31.247 14.7729 31.247C14.6404 31.2618 14.6257 31.2175 14.6404 31.1142Z" fill="#2C3EB2"/>
<path d="M12.7423 37.5791L12.2568 36.1474H11.4916L12.3009 38.4795L11.5799 39.9998H12.3451L14.2137 36.1474H13.4486L12.7423 37.5791Z" fill="#2C3EB2"/>
<path d="M17.186 37.5791L16.6857 36.1474H15.9353L16.7445 38.4795L16.0088 39.9998H16.7887L18.6574 36.1474H17.8775L17.186 37.5791Z" fill="#2C3EB2"/>
<path d="M22.2623 36.0884C21.7767 36.0884 21.3794 36.2212 21.0704 36.5016C20.7615 36.7821 20.5996 37.1363 20.5996 37.5496C20.5996 37.9039 20.7173 38.1991 20.9527 38.4205C21.1882 38.6419 21.4972 38.7599 21.865 38.7599C21.9974 38.7599 22.1299 38.7452 22.2623 38.7304C22.3947 38.7157 22.5419 38.6861 22.6743 38.6419L22.7773 37.8891C22.6301 37.9629 22.4977 38.0072 22.38 38.0515C22.2476 38.081 22.1299 38.1105 22.0269 38.1105C21.8061 38.1105 21.6443 38.0662 21.5413 37.9629C21.4236 37.8596 21.3794 37.7267 21.3794 37.5349C21.3794 37.3134 21.4677 37.1363 21.6296 36.9887C21.7914 36.8411 21.9974 36.7673 22.2476 36.7673C22.3211 36.7673 22.4094 36.7821 22.5124 36.7968C22.6154 36.8116 22.7331 36.8411 22.8508 36.8854L22.9391 36.1917C22.8214 36.1474 22.7037 36.1179 22.586 36.1031C22.483 36.1031 22.38 36.0884 22.2623 36.0884Z" fill="#2C3EB2"/>
<path d="M27.1326 36.1474L26.5293 36.8854L26.1026 36.1474H25.2639L26.0438 37.3577L24.8225 38.7304H25.7642L26.4116 37.9481L26.8089 38.7304H27.6623L26.9119 37.4611L28.0007 36.1474H27.1326Z" fill="#2C3EB2"/>
<path d="M31.4585 36.0884C30.973 36.0884 30.5757 36.2212 30.2667 36.5016C29.9577 36.7821 29.7958 37.1363 29.7958 37.5496C29.7958 37.9039 29.9136 38.1991 30.149 38.4205C30.3844 38.6419 30.6934 38.7599 31.0613 38.7599C31.1937 38.7599 31.3261 38.7452 31.4585 38.7304C31.591 38.7157 31.7381 38.6861 31.8705 38.6419L31.9735 37.8891C31.8264 37.9629 31.694 38.0072 31.5762 38.0515C31.4438 38.081 31.3261 38.1105 31.2231 38.1105C31.0024 38.1105 30.8405 38.0662 30.7375 37.9629C30.6198 37.8596 30.5757 37.7267 30.5757 37.5349C30.5757 37.3134 30.664 37.1363 30.8258 36.9887C30.9877 36.8411 31.1937 36.7673 31.4438 36.7673C31.5174 36.7673 31.6057 36.7821 31.7087 36.7968C31.8117 36.8116 31.9294 36.8411 32.0471 36.8854L32.1354 36.1917C32.0177 36.1474 31.9 36.1179 31.7822 36.1031C31.6792 36.1031 31.5615 36.0884 31.4585 36.0884Z" fill="#2C3EB2"/>
<path d="M36.3289 36.0884C36.1817 36.0884 36.0346 36.1179 35.9022 36.1769C35.7697 36.236 35.6226 36.3245 35.4755 36.4426L35.7109 34.9223H34.9752L34.4013 38.7304H35.137L35.3872 37.0478C35.5049 36.9149 35.6226 36.8264 35.7403 36.7526C35.8433 36.6935 35.9463 36.664 36.0493 36.664C36.1229 36.664 36.1817 36.6935 36.2112 36.7378C36.2553 36.7968 36.27 36.8559 36.27 36.9592C36.27 36.9887 36.27 37.033 36.2553 37.092C36.2553 37.1216 36.2553 37.1511 36.2406 37.1658L36.0052 38.7304H36.7556L37.0057 37.092C37.0057 37.0478 37.0204 37.0035 37.0204 36.9592C37.0204 36.9149 37.0204 36.8559 37.0204 36.8116C37.0204 36.5902 36.9616 36.4131 36.8291 36.295C36.7114 36.1474 36.5496 36.0884 36.3289 36.0884Z" fill="#2C3EB2"/>
<path d="M40.1692 35.0256C40.0662 35.0256 39.9632 35.0699 39.8897 35.1437C39.8161 35.2175 39.7867 35.3061 39.7867 35.4242C39.7867 35.5275 39.8308 35.616 39.9044 35.6898C39.9779 35.7636 40.0662 35.8079 40.1692 35.8079C40.2722 35.8079 40.3605 35.7636 40.4488 35.6898C40.5371 35.616 40.5665 35.5275 40.5665 35.4242C40.5665 35.3208 40.5224 35.2323 40.4488 35.1437C40.3752 35.0699 40.2869 35.0256 40.1692 35.0256Z" fill="#2C3EB2"/>
<path d="M39.3452 38.7304H40.0809L40.4635 36.1474H39.7425L39.3452 38.7304Z" fill="#2C3EB2"/>
<path d="M44.6276 36.0884C44.4804 36.0884 44.3333 36.1179 44.1861 36.1769C44.039 36.236 43.9066 36.3245 43.7594 36.4278L43.8036 36.1326H43.0679L42.6853 38.7157H43.421L43.6711 37.033C43.7889 36.9002 43.8919 36.8116 44.0096 36.7378C44.1273 36.6788 44.2303 36.6345 44.3333 36.6345C44.4068 36.6345 44.451 36.664 44.4951 36.7083C44.5393 36.7526 44.554 36.8264 44.554 36.9149C44.554 36.9444 44.554 36.974 44.554 37.0035C44.554 37.0478 44.5393 37.092 44.5393 37.1363L44.3038 38.7009H45.069L45.3191 37.0625C45.3191 37.0182 45.3338 36.974 45.3338 36.9297C45.3338 36.8854 45.3338 36.8264 45.3338 36.7821C45.3338 36.5607 45.275 36.3836 45.1425 36.2655C45.0101 36.1474 44.8335 36.0884 44.6276 36.0884Z" fill="#2C3EB2"/>
<path d="M48.821 36.236C48.5856 36.295 48.3796 36.4131 48.2031 36.5607C48.0412 36.6935 47.9088 36.8706 47.8205 37.0625C47.7322 37.2544 47.6881 37.4758 47.6881 37.6972C47.6881 38.0219 47.7616 38.2876 47.9235 38.4795C48.0853 38.6714 48.3061 38.7599 48.5709 38.7599C48.6886 38.7599 48.8063 38.7452 48.924 38.7009C49.0418 38.6566 49.1595 38.5976 49.2772 38.509L49.2477 38.7157H49.9982L50.3807 36.1326H49.954C49.439 36.1474 49.0565 36.1769 48.821 36.236ZM49.3655 37.9924C49.2625 38.0662 49.1742 38.1105 49.0712 38.14C48.9829 38.1695 48.8799 38.1843 48.7916 38.1843C48.6739 38.1843 48.5856 38.14 48.5121 38.0662C48.4385 37.9777 48.409 37.8743 48.409 37.7267C48.409 37.4315 48.4973 37.1954 48.6739 37.0182C48.8505 36.8411 49.0859 36.7526 49.3949 36.7526C49.439 36.7526 49.4685 36.7526 49.4832 36.7526C49.4979 36.7526 49.5273 36.7526 49.542 36.7526L49.3655 37.9924Z" fill="#2C3EB2"/>
<path d="M53.1322 37.8743C52.9998 37.8743 52.8968 37.9186 52.8085 38.0072C52.7203 38.0957 52.6761 38.1991 52.6761 38.3319C52.6761 38.45 52.7203 38.5681 52.8085 38.6566C52.8968 38.7452 52.9998 38.7895 53.1322 38.7895C53.25 38.7895 53.3677 38.7452 53.456 38.6566C53.5442 38.5681 53.5884 38.4647 53.5884 38.3319C53.5884 38.1991 53.5442 38.0957 53.456 38.0072C53.353 37.9186 53.25 37.8743 53.1322 37.8743Z" fill="#2C3EB2"/>
<path d="M57.7966 36.0884C57.311 36.0884 56.9137 36.2212 56.6048 36.5016C56.2958 36.7821 56.1339 37.1363 56.1339 37.5496C56.1339 37.9039 56.2516 38.1991 56.487 38.4205C56.7225 38.6419 57.0315 38.7599 57.3993 38.7599C57.5317 38.7599 57.6642 38.7452 57.7966 38.7304C57.929 38.7157 58.0761 38.6861 58.2086 38.6419L58.3116 37.8891C58.1644 37.9629 58.032 38.0072 57.9143 38.0515C57.7819 38.081 57.6642 38.1105 57.5612 38.1105C57.3405 38.1105 57.1786 38.0662 57.0756 37.9629C56.9579 37.8596 56.9137 37.7267 56.9137 37.5349C56.9137 37.3134 57.002 37.1363 57.1639 36.9887C57.3257 36.8411 57.5317 36.7673 57.7819 36.7673C57.8554 36.7673 57.9437 36.7821 58.0467 36.7968C58.1497 36.8116 58.2674 36.8411 58.3851 36.8854L58.4734 36.1917C58.3557 36.1474 58.238 36.1179 58.1203 36.1031C58.0173 36.1031 57.9143 36.0884 57.7966 36.0884Z" fill="#2C3EB2"/>
<path d="M62.2549 36.0884C61.8429 36.0884 61.4898 36.2212 61.2102 36.5016C60.9307 36.7821 60.7835 37.1216 60.7835 37.5349C60.7835 37.9186 60.8865 38.2138 61.1072 38.4352C61.3279 38.6566 61.6222 38.7747 61.9901 38.7747C62.4021 38.7747 62.7552 38.6271 63.0348 38.3467C63.3143 38.0662 63.4615 37.712 63.4615 37.2839C63.4615 36.9297 63.3438 36.6345 63.123 36.4131C62.8876 36.1917 62.6081 36.0884 62.2549 36.0884ZM62.4903 37.9186C62.3726 38.081 62.2108 38.1695 62.0342 38.1695C61.8871 38.1695 61.7694 38.1105 61.6811 38.0072C61.5928 37.9039 61.5486 37.7563 61.5486 37.5644C61.5486 37.3282 61.6075 37.1216 61.7399 36.9592C61.8724 36.7968 62.0195 36.7083 62.1961 36.7083C62.3432 36.7083 62.4462 36.7673 62.5345 36.8706C62.6228 36.9887 62.6669 37.1216 62.6669 37.3134C62.6669 37.5496 62.6081 37.7563 62.4903 37.9186Z" fill="#2C3EB2"/>
<path d="M69.2294 36.0884C69.0822 36.0884 68.9351 36.1179 68.7732 36.1917C68.6114 36.2655 68.4495 36.3688 68.2582 36.5164C68.1994 36.3688 68.1258 36.2507 68.0228 36.1917C67.9198 36.1326 67.7874 36.0884 67.6255 36.0884C67.4637 36.0884 67.3018 36.1179 67.1694 36.1769C67.037 36.236 66.8898 36.3245 66.7721 36.4426L66.8163 36.1326H66.0658L65.6833 38.7157H66.4337L66.6838 37.033C66.7868 36.9149 66.9045 36.8116 67.0075 36.7526C67.1105 36.6935 67.2283 36.6492 67.3312 36.6492C67.4195 36.6492 67.4784 36.6788 67.5225 36.723C67.5667 36.7673 67.5814 36.8411 67.5814 36.9444C67.5814 36.974 67.5814 37.0182 67.5667 37.0625V37.0773L67.3165 38.7157H68.067L68.3171 37.0182C68.4201 36.9002 68.5231 36.8116 68.6408 36.7526C68.7585 36.6935 68.8468 36.6492 68.9498 36.6492C69.0381 36.6492 69.0969 36.6788 69.1411 36.723C69.1852 36.7673 69.1999 36.8411 69.1999 36.9444C69.1999 36.974 69.1999 37.0035 69.1852 37.0625V37.0773L68.9351 38.7157H69.7002L69.8915 37.4168C69.9062 37.2692 69.9356 37.1363 69.9356 37.0478C69.9356 36.9592 69.9503 36.8706 69.9503 36.8116C69.9503 36.5754 69.8915 36.3983 69.7591 36.2802C69.6266 36.1622 69.4648 36.0884 69.2294 36.0884Z" fill="#2C3EB2"/>
</g>
<defs>
<clipPath id="clip0_13186_55870">
<rect width="80" height="40" fill="white"/>
</clipPath>
</defs>
</svg>
