<svg width="20" height="20" viewBox="0 0 20 20" fill="none" xmlns="http://www.w3.org/2000/svg">
<path d="M5.55 9.8625C5.55 9.2125 5.25 8.6125 4.65 8.2625C4.1 7.9125 3.4 7.9125 2.85 8.2625C2.3 8.6125 2 9.2625 2 9.8625C2 10.8625 2.8 11.6125 3.8 11.6125C4.75 11.6125 5.55 10.8625 5.55 9.8625Z" fill="white"/>
<path d="M8.45 9.0125C8.15 9.5625 8.15 10.2625 8.45 10.8125C8.8 11.3125 9.35 11.6625 10 11.6625C11 11.6625 11.8 10.8625 11.8 9.8625C11.8 8.8625 11 8.0625 10 8.0625C9.35 8.1125 8.8 8.4625 8.45 9.0125Z" fill="white"/>
<path d="M14.45 9.8625C14.45 10.8625 15.25 11.6625 16.25 11.6625C17.25 11.6625 18 10.8625 18 9.8625C18 9.2125 17.65 8.6625 17.1 8.3125C16.55 8.0125 15.85 8.0125 15.3 8.3125C14.8 8.6625 14.45 9.2625 14.45 9.8625Z" fill="white"/>
</svg>
