<svg width="16" height="16" viewBox="0 0 16 16" fill="none" xmlns="http://www.w3.org/2000/svg">
<path fill-rule="evenodd" clip-rule="evenodd" d="M11.032 11.3312C11.3554 11.0037 11.883 11.0003 12.2105 11.3237L15.5022 14.5737C15.8297 14.897 15.833 15.4247 15.5097 15.7522C15.1863 16.0797 14.6587 16.083 14.3312 15.7597L11.0395 12.5097C10.712 12.1863 10.7086 11.6587 11.032 11.3312Z" fill="#B2B2B2"/>
<path fill-rule="evenodd" clip-rule="evenodd" d="M7.625 2.66667C4.88659 2.66667 2.66667 4.88659 2.66667 7.625C2.66667 10.3634 4.88659 12.5833 7.625 12.5833C10.3634 12.5833 12.5833 10.3634 12.5833 7.625C12.5833 4.88659 10.3634 2.66667 7.625 2.66667ZM1 7.625C1 3.96611 3.96611 1 7.625 1C11.2839 1 14.25 3.96611 14.25 7.625C14.25 11.2839 11.2839 14.25 7.625 14.25C3.96611 14.25 1 11.2839 1 7.625Z" fill="#B2B2B2"/>
</svg>
