<svg width="15" height="14" viewBox="0 0 15 14" fill="none" xmlns="http://www.w3.org/2000/svg">
<g clip-path="url(#clip0_14442_8872)">
<path fill-rule="evenodd" clip-rule="evenodd" d="M4.30296 1C3.79475 1 3.3371 1.31711 3.15925 1.79444L3.15895 1.79525L1.89793 5.15796L1.34219 4.73266C1.11245 4.55685 0.783676 4.60056 0.60786 4.83031C0.432044 5.06005 0.475761 5.38882 0.705503 5.56464L1.51354 6.183L1.29466 6.76666C1.27261 6.82548 1.26131 6.88778 1.26131 6.95059V11.3367C1.26131 11.3408 1.26136 11.3449 1.26145 11.3489C1.26136 11.353 1.26131 11.3571 1.26131 11.3611V12.6986C1.26131 12.9879 1.49583 13.2225 1.78513 13.2225H3.12611C3.38766 13.2225 3.60913 13.0295 3.64498 12.7704L3.7709 11.8605H11.2535L11.3795 12.7704C11.4153 13.0295 11.6368 13.2225 11.8983 13.2225H13.2393C13.5286 13.2225 13.7631 12.9879 13.7631 12.6986V11.3611C13.7631 11.3406 13.7619 11.3203 13.7596 11.3004V6.95059C13.7596 6.88789 13.7484 6.82569 13.7264 6.76697L13.5031 6.17029L14.2945 5.56464C14.5242 5.38882 14.568 5.06005 14.3921 4.83031C14.2163 4.60056 13.8876 4.55685 13.6578 4.73266L13.1192 5.14482L11.8655 1.79525L11.8653 1.79465C11.6875 1.3172 11.2298 1 10.7215 1H4.30296ZM4.14091 2.16034C4.16582 2.09335 4.23175 2.04764 4.30296 2.04764H10.7215C10.7927 2.04764 10.8586 2.09335 10.8835 2.16034L10.8839 2.16142L12.1132 5.44548H2.90899L4.1404 2.16172L4.14091 2.16034ZM2.64708 6.14391L2.30895 7.04558V10.8129H12.712V7.04541L12.3746 6.14391H2.64708ZM3.91533 8.89221C4.35506 8.89221 4.71154 8.53574 4.71154 8.09601C4.71154 7.65628 4.35506 7.2998 3.91533 7.2998C3.4756 7.2998 3.11912 7.65628 3.11912 8.09601C3.11912 8.53574 3.4756 8.89221 3.91533 8.89221ZM11.8809 8.09601C11.8809 8.53574 11.5244 8.89221 11.0847 8.89221C10.6449 8.89221 10.2885 8.53574 10.2885 8.09601C10.2885 7.65628 10.6449 7.2998 11.0847 7.2998C11.5244 7.2998 11.8809 7.65628 11.8809 8.09601Z" fill="#313131"/>
</g>
<defs>
<clipPath id="clip0_14442_8872">
<rect width="14" height="14" fill="white" transform="translate(0.5)"/>
</clipPath>
</defs>
</svg>
