<svg width="17" height="16" viewBox="0 0 17 16" fill="none" xmlns="http://www.w3.org/2000/svg">
<path d="M8.19995 16C3.79995 16 0.199951 12.4 0.199951 8C0.199951 3.6 3.79995 0 8.19995 0C12.6 0 16.2 3.6 16.2 8C16.2 12.4 12.6 16 8.19995 16ZM8.19995 1.77778C4.77773 1.77778 1.97773 4.57778 1.97773 8C1.97773 11.4222 4.77773 14.2222 8.19995 14.2222C11.6222 14.2222 14.4222 11.4222 14.4222 8C14.4222 4.57778 11.6222 1.77778 8.19995 1.77778Z" fill="#999999"/>
<path d="M8.51106 12.1333C8.28884 12.2667 8.06662 12.2667 7.8444 12.1333C7.66662 12 7.53328 11.8222 7.53328 11.5556C7.53328 11.2 7.8444 10.8889 8.19995 10.8889C8.55551 10.8889 8.86662 11.2 8.86662 11.5556C8.86662 11.7778 8.73328 12 8.51106 12.1333Z" fill="#999999"/>
<path d="M8.19995 12.4444C8.06662 12.4444 7.88884 12.4 7.75551 12.3111C7.48884 12.1778 7.31106 11.8667 7.31106 11.5556C7.31106 11.0667 7.71106 10.6667 8.19995 10.6667C8.68884 10.6667 9.08884 11.0667 9.08884 11.5556C9.08884 11.8667 8.91106 12.1333 8.6444 12.3111C8.51106 12.4 8.33328 12.4444 8.19995 12.4444ZM8.19995 11.1111C7.97773 11.1111 7.75551 11.2889 7.75551 11.5556C7.75551 11.6889 7.8444 11.8667 7.97773 11.9111C8.11106 12 8.28884 12 8.42217 11.9111C8.55551 11.8222 8.6444 11.6889 8.6444 11.5556C8.6444 11.3333 8.42217 11.1111 8.19995 11.1111Z" fill="#999999"/>
<path d="M8.86662 8.97778C8.86662 9.42222 8.6444 9.64444 8.19995 9.64444C7.75551 9.64444 7.53328 9.42222 7.53328 8.97778V5.42222C7.53328 4.97778 7.75551 4.75556 8.19995 4.75556C8.6444 4.75556 8.86662 4.97778 8.86662 5.42222V8.97778Z" fill="#999999"/>
<path d="M8.19995 9.82222C7.66662 9.82222 7.31106 9.51111 7.31106 8.93333V5.37778C7.31106 4.84444 7.62217 4.48889 8.19995 4.48889C8.77773 4.48889 9.08884 4.8 9.08884 5.37778V8.93333C9.08884 9.51111 8.73328 9.82222 8.19995 9.82222ZM8.19995 4.97778C7.88884 4.97778 7.75551 5.11111 7.75551 5.42222V8.97778C7.75551 9.28889 7.88884 9.42222 8.19995 9.42222C8.51106 9.42222 8.6444 9.28889 8.6444 8.97778V5.42222C8.6444 5.11111 8.51106 4.97778 8.19995 4.97778Z" fill="#999999"/>
</svg>
