<svg width="20" height="20" viewBox="0 0 20 20" fill="none" xmlns="http://www.w3.org/2000/svg">
<path fill-rule="evenodd" clip-rule="evenodd" d="M2.76623 9.3978H7.18735C8.40868 9.3978 9.39791 8.40858 9.39791 7.18724V2.76612C9.39791 1.54478 8.40868 0.555557 7.18735 0.555557H2.76623C1.54489 0.555557 0.555664 1.54478 0.555664 2.76612V7.18724C0.555664 8.40858 1.54489 9.3978 2.76623 9.3978ZM12.8129 9.3978H17.234C18.4553 9.3978 19.4445 8.40858 19.4445 7.18724V2.76612C19.4445 1.54478 18.4553 0.555557 17.234 0.555557H12.8129C11.5915 0.555557 10.6023 1.54478 10.6023 2.76612V7.18724C10.6023 8.40858 11.5915 9.3978 12.8129 9.3978ZM7.18735 19.4444H2.76623C1.54489 19.4444 0.555664 18.4552 0.555664 17.2339V12.8128C0.555664 11.5914 1.54489 10.6022 2.76623 10.6022H7.18735C8.40868 10.6022 9.39791 11.5914 9.39791 12.8128V17.2339C9.39791 18.4552 8.40868 19.4444 7.18735 19.4444ZM12.8129 19.4444H17.234C18.4553 19.4444 19.4445 18.4552 19.4445 17.2339V12.8128C19.4445 11.5914 18.4553 10.6022 17.234 10.6022H12.8129C11.5915 10.6022 10.6023 11.5914 10.6023 12.8128V17.2339C10.6023 18.4552 11.5915 19.4444 12.8129 19.4444Z" fill="white"/>
</svg>
