<svg width="20" height="20" viewBox="0 0 20 20" fill="none" xmlns="http://www.w3.org/2000/svg">
<path fill-rule="evenodd" clip-rule="evenodd" d="M15.6506 0H4.40056C2.62424 0 1.11108 1.51316 1.11108 3.35526V16.7105C1.11108 18.4868 2.62424 20 4.40056 20H15.5848C17.3611 20 18.8742 18.4868 18.8742 16.7105V3.35526C18.94 1.51316 17.4269 0 15.6506 0ZM4.57137 7.14284C4.57137 6.52919 5.06883 6.03173 5.68248 6.03173H14.8253C15.439 6.03173 15.9364 6.52919 15.9364 7.14284C15.9364 7.75649 15.439 8.25395 14.8253 8.25395H5.68248C5.06883 8.25395 4.57137 7.75649 4.57137 7.14284ZM5.68248 10.3174C5.06883 10.3174 4.57137 10.8149 4.57137 11.4286C4.57137 12.0422 5.06883 12.5397 5.68248 12.5397H11.3968C12.0104 12.5397 12.5079 12.0422 12.5079 11.4286C12.5079 10.8149 12.0104 10.3174 11.3968 10.3174H5.68248Z" fill="white"/>
</svg>
